<?xml version="1.0" standalone="no"?><!DOCTYPE svg PUBLIC "-//W3C//DTD SVG 1.1//EN" "http://www.w3.org/Graphics/SVG/1.1/DTD/svg11.dtd"><svg t="1663902448293" class="icon" viewBox="0 0 1024 1024" version="1.1" xmlns="http://www.w3.org/2000/svg" p-id="7634" width="32" height="32" xmlns:xlink="http://www.w3.org/1999/xlink"><path d="M509.952 592.896c66.048-47.104 108.544-121.344 108.544-208.896 0-140.8-115.2-256-256-256s-256 115.2-256 256c0 87.552 42.496 162.304 109.056 208.896-102.4 57.856-173.056 170.496-173.056 303.104 0 23.552 19.456 42.496 42.496 42.496H640c23.552 0 42.496-19.456 42.496-42.496 0-132.096-70.144-245.248-172.544-303.104zM938.496 512h-213.504c-23.552 0-42.496-19.456-42.496-42.496s19.456-42.496 42.496-42.496h213.504c23.552 0 42.496 19.456 42.496 42.496s-18.944 42.496-42.496 42.496z m0 213.504H768c-23.552 0-42.496-19.456-42.496-42.496 0-23.552 19.456-42.496 42.496-42.496h170.496c23.552 0 42.496 19.456 42.496 42.496 0.512 23.04-18.944 42.496-42.496 42.496z m0 212.992H768c-23.552 0-42.496-19.456-42.496-42.496s19.456-42.496 42.496-42.496h170.496c23.552 0 42.496 19.456 42.496 42.496s-18.944 42.496-42.496 42.496z" fill="#889aa4" p-id="7635"></path></svg>