<?xml version="1.0" standalone="no"?><!DOCTYPE svg PUBLIC "-//W3C//DTD SVG 1.1//EN" "http://www.w3.org/Graphics/SVG/1.1/DTD/svg11.dtd"><svg t="1672724575153" class="icon" viewBox="0 0 1024 1024" version="1.1" xmlns="http://www.w3.org/2000/svg" p-id="7820" width="32" height="32" xmlns:xlink="http://www.w3.org/1999/xlink"><path d="M492.544 414.208C471.04 291.84 552.96 174.592 675.328 153.088s239.616 60.416 261.12 182.784c21.504 122.368-60.416 239.616-182.784 261.12s-239.616-60.416-261.12-182.784z m100.864-17.92c11.776 67.072 75.776 111.616 142.336 99.84 67.072-11.776 111.616-75.776 99.84-142.336-11.776-67.072-75.776-111.616-142.336-99.84-66.56 11.776-111.616 75.776-99.84 142.336z" p-id="7821" fill="#889aa4"></path><path d="M225.28 862.72l364.544-306.176c31.232-26.112 50.688-57.856 24.576-89.088-26.112-31.232-73.216-35.328-104.448-9.216l-364.544 306.176c-31.232 26.112-45.568 62.976-19.456 94.208 26.112 31.232 67.584 30.208 99.328 4.096z" p-id="7822" fill="#889aa4"></path><path d="M240.64 774.144l79.36-63.488c8.704-7.168 9.728-20.48 2.56-28.672L222.72 563.2c-7.168-8.704-20.48-9.728-28.672-2.56l-79.36 63.488c-8.704 7.168-9.728 20.48-2.56 28.672l99.328 118.784c7.68 8.704 20.48 9.728 29.184 2.56z" p-id="7823" fill="#889aa4"></path></svg>